<?xml version="1.0" encoding="UTF-8"?>
<svg width="512px" height="512px" viewBox="0 0 512 512" version="1.1" xmlns="http://www.w3.org/2000/svg" xmlns:xlink="http://www.w3.org/1999/xlink">
    <title>Website/AppStore/appstore_icon</title>
    <g id="Website/AppStore/appstore_icon" stroke="none" stroke-width="1" fill="none" fill-rule="evenodd">
        <g id="&gt;Background/Shape/Squircle" fill="#000000">
            <path d="M147.679788,-1.32211133e-14 L364.320212,5.96644017e-15 C415.671692,-3.46667356e-15 434.292979,5.3467552 453.066313,15.3868437 C471.839646,25.4269323 486.573068,40.1603541 496.613156,58.9336875 C506.653245,77.7070208 512,96.3283081 512,147.679788 L512,364.320212 C512,415.671692 506.653245,434.292979 496.613156,453.066313 C486.573068,471.839646 471.839646,486.573068 453.066313,496.613156 C434.292979,506.653245 415.671692,512 364.320212,512 L147.679788,512 C96.3283081,512 77.7070208,506.653245 58.9336875,496.613156 C40.1603541,486.573068 25.4269323,471.839646 15.3868437,453.066313 C5.3467552,434.292979 6.52628971e-15,415.671692 -1.12322999e-14,364.320212 L3.97762678e-15,147.679788 C-2.31111571e-15,96.3283081 5.3467552,77.7070208 15.3868437,58.9336875 C25.4269323,40.1603541 40.1603541,25.4269323 58.9336875,15.3868437 C77.7070208,5.3467552 96.3283081,7.68184756e-15 147.679788,-1.32211133e-14 Z" id="Squircle-(1,080)"></path>
        </g>
        <g id="Group" transform="translate(128.000000, 128.000000)">
            <g id="IconX6+0" transform="translate(-128.000000, -128.000000)">
                <path d="M320,292.9504 L256,329.9008 L256,403.8016 L309.333337,434.593602 C315.933891,438.404432 324.066109,438.404432 330.666663,434.593602 L373.33333,409.960002 C379.933888,406.14917 384,399.106459 384,391.484791 L384,342.217609 C384,334.595941 379.933888,327.55323 373.33333,323.742398 L320,292.9504 L320,292.9504 Z" id="X32" fill="#0087FF"></path>
                <path d="M192,292.9504 L138.66667,323.742398 C132.066112,327.55323 128,334.595941 128,342.217609 L128,391.484791 C128,399.106459 132.066112,406.14917 138.66667,409.960002 L181.333337,434.593602 C187.933891,438.404432 196.066109,438.404432 202.666663,434.593602 L256,403.8016 L256,403.8016 L256,329.9008 L192,292.9504 Z" id="X22" fill="#DF001F"></path>
                <path d="M309.333337,77.4063978 L256,108.1984 L256,108.1984 L256,182.0992 L320,219.0496 L373.33333,188.257602 C379.933888,184.44677 384,177.404059 384,169.782391 L384,120.515209 C384,112.893541 379.933888,105.85083 373.33333,102.039998 L330.666663,77.4063978 C324.066109,73.5955678 315.933891,73.5955678 309.333337,77.4063978 Z" id="X31" fill="#0087FF"></path>
                <path d="M181.333337,77.4063978 L138.66667,102.039998 C132.066112,105.85083 128,112.893541 128,120.515209 L128,169.782391 C128,177.404059 132.066112,184.44677 138.66667,188.257602 L192,219.0496 L192,219.0496 L256,182.0992 L256,108.1984 L202.666663,77.4063978 C196.066109,73.5955678 187.933891,73.5955678 181.333337,77.4063978 Z" id="X21" fill="#DF001F"></path>
                <path d="M256,256 L192,292.9504 L192,354.534391 C192,362.156059 196.066112,369.19877 202.66667,373.009602 L256,403.8016 L256,403.8016 L309.33333,373.009602 C315.933888,369.19877 320,362.156059 320,354.534391 L320,292.9504 L320,292.9504 L256,256 Z" id="X12" fill="#FFCF00"></path>
                <path d="M256,108.1984 L202.66667,138.990398 C196.066112,142.80123 192,149.843941 192,157.465609 L192,219.0496 L192,219.0496 L256,256 L320,219.0496 L320,157.465609 C320,149.843941 315.933888,142.80123 309.33333,138.990398 L256,108.1984 L256,108.1984 Z" id="X11" fill="#FFCF00"></path>
                <path d="M245.333337,188.257598 L192,219.0496 L192,219.0496 L192,292.9504 L245.333337,323.742402 C251.933891,327.553232 260.066109,327.553232 266.666663,323.742402 L320,292.9504 L320,292.9504 L320,219.0496 L266.666663,188.257598 C260.066109,184.446768 251.933891,184.446768 245.333337,188.257598 Z" id="X0" fill="#3FBF00"></path>
            </g>
        </g>
    </g>
</svg>